<?xml version="1.0" standalone="no"?>
<!DOCTYPE svg PUBLIC "-//W3C//DTD SVG 20010904//EN"
 "http://www.w3.org/TR/2001/REC-SVG-20010904/DTD/svg10.dtd">
<svg version="1.0" xmlns="http://www.w3.org/2000/svg"
 width="980.000000pt" height="980.000000pt" viewBox="0 0 980.000000 980.000000"
 preserveAspectRatio="xMidYMid meet">
<metadata>
Created by potrace 1.11, written by Peter Selinger 2001-2013
</metadata>
<g transform="translate(0.000000,980.000000) scale(0.100000,-0.100000)"
fill="#000000" stroke="none">
<path d="M1813 9785 c-105 -29 -176 -71 -313 -185 -268 -225 -663 -577 -933
-832 -136 -129 -151 -147 -186 -222 -70 -146 -94 -296 -67 -418 37 -166 100
-259 434 -633 79 -88 146 -161 150 -163 4 -1 36 44 72 100 251 395 712 897
1105 1203 132 102 382 268 520 343 61 33 145 79 188 103 42 23 77 48 77 55 0
23 -116 151 -329 365 -222 222 -260 249 -396 284 -74 19 -251 19 -322 0z"/>
<path d="M7651 9784 c-132 -35 -254 -132 -494 -392 -176 -191 -221 -247 -214
-266 3 -8 78 -51 167 -97 364 -185 708 -446 1080 -819 281 -280 464 -502 633
-767 40 -62 75 -112 79 -110 4 1 77 81 163 177 326 364 395 470 426 646 19
108 -11 269 -74 404 -37 78 -259 294 -700 679 -362 317 -559 475 -633 510
-100 48 -320 65 -433 35z"/>
<path d="M4432 9045 c-696 -94 -1281 -307 -1837 -673 -497 -326 -909 -740
-1237 -1243 -122 -186 -181 -290 -277 -491 -484 -1006 -560 -2155 -211 -3209
174 -525 426 -976 800 -1429 56 -68 107 -134 112 -146 8 -18 -8 -51 -106 -213
-120 -201 -295 -538 -364 -701 -145 -345 -184 -615 -113 -776 47 -104 153
-164 294 -164 268 0 609 187 1407 773 101 74 181 126 190 123 8 -2 89 -37 179
-76 391 -171 906 -302 1296 -330 289 -21 769 -8 1005 26 354 51 779 174 1133
327 l129 56 275 -200 c594 -433 825 -573 1088 -660 90 -30 112 -33 215 -33
100 -1 121 2 162 23 107 52 158 144 166 297 5 109 -8 192 -53 350 -65 221
-243 604 -435 933 -56 96 -109 189 -117 206 l-16 33 141 172 c235 288 382 511
532 811 189 376 316 747 399 1164 41 202 50 304 57 615 9 381 -11 712 -57 950
-196 1005 -718 1888 -1502 2538 -555 461 -1292 799 -2000 917 -253 42 -308 46
-697 50 -356 4 -384 3 -558 -20z m954 -740 c781 -75 1617 -502 2180 -1115 495
-538 831 -1242 916 -1920 9 -72 13 -238 13 -530 0 -468 -2 -483 -70 -765 -82
-340 -198 -639 -357 -925 -568 -1015 -1561 -1673 -2748 -1822 -136 -17 -563
-17 -700 0 -752 92 -1329 329 -1900 781 -134 106 -459 435 -564 571 -466 604
-716 1277 -755 2028 -70 1341 647 2616 1847 3286 376 210 892 378 1274 415
153 15 692 12 864 -4z"/>
<path d="M4863 7540 c-17 -10 -37 -29 -44 -42 -22 -40 -28 -332 -28 -1334 l-1
-971 -66 -43 c-108 -70 -178 -176 -205 -309 -44 -224 141 -472 371 -499 112
-13 183 1 299 59 l103 52 232 8 c127 4 458 8 736 9 633 1 893 11 944 35 54 26
130 114 146 169 18 65 9 180 -18 233 -32 62 -77 109 -127 133 -65 32 -202 38
-1065 50 -415 6 -790 15 -833 20 -58 7 -91 17 -125 38 l-47 29 -5 1144 -5
1145 -41 36 c-22 21 -53 42 -68 48 -44 16 -118 12 -153 -10z"/>
</g>
</svg>
